<svg width="24" height="24" viewBox="0 0 24 24" fill="none" xmlns="http://www.w3.org/2000/svg">
<path d="M6.89002 17.49L9.19002 19.79M19.79 14.93C18.8135 15.9041 17.5896 16.5931 16.2502 16.9226C14.9109 17.2521 13.507 17.2098 12.19 16.8L7.48002 21.5C7.14002 21.85 6.47002 22.06 5.99002 21.99L3.81002 21.69C3.09002 21.59 2.42002 20.91 2.31002 20.19L2.01002 18.01C1.94002 17.53 2.17002 16.86 2.50002 16.52L7.20002 11.82C6.40002 9.22001 7.02002 6.27001 9.08002 4.22001C12.03 1.27001 16.82 1.27001 19.78 4.22001C22.74 7.17001 22.74 11.98 19.79 14.93V14.93Z" stroke="black" stroke-width="1.5" stroke-miterlimit="10" stroke-linecap="round" stroke-linejoin="round"/>
<path d="M14.5 11C14.8978 11 15.2794 10.842 15.5607 10.5607C15.842 10.2794 16 9.89782 16 9.5C16 9.10218 15.842 8.72064 15.5607 8.43934C15.2794 8.15804 14.8978 8 14.5 8C14.1022 8 13.7206 8.15804 13.4393 8.43934C13.158 8.72064 13 9.10218 13 9.5C13 9.89782 13.158 10.2794 13.4393 10.5607C13.7206 10.842 14.1022 11 14.5 11Z" stroke="black" stroke-width="1.5" stroke-linecap="round" stroke-linejoin="round"/>
</svg>
