<svg width="28" height="28" viewBox="0 0 28 28" fill="none" xmlns="http://www.w3.org/2000/svg">
<path d="M14.0003 26.543C13.2186 26.543 12.4253 26.3446 11.7253 25.9363L4.79526 21.9346C3.39526 21.118 2.52026 19.613 2.52026 17.9913V10.0113C2.52026 8.38963 3.39526 6.88463 4.79526 6.06796L11.7253 2.0663C13.1253 1.24963 14.8636 1.24963 16.2753 2.0663L23.2053 6.06796C24.6053 6.88463 25.4803 8.38963 25.4803 10.0113V17.9913C25.4803 19.613 24.6053 21.118 23.2053 21.9346L16.2753 25.9363C15.5753 26.3446 14.782 26.543 14.0003 26.543ZM14.0003 3.20961C13.522 3.20961 13.032 3.33795 12.6003 3.58295L5.67026 7.58461C4.80693 8.08627 4.27026 9.00796 4.27026 10.0113V17.9913C4.27026 18.983 4.80693 19.9163 5.67026 20.418L12.6003 24.4196C13.4636 24.9213 14.537 24.9213 15.4003 24.4196L22.3303 20.418C23.1936 19.9163 23.7303 18.9946 23.7303 17.9913V10.0113C23.7303 9.01963 23.1936 8.08627 22.3303 7.58461L15.4003 3.58295C14.9686 3.33795 14.4786 3.20961 14.0003 3.20961Z" fill="white"/>
<path d="M14.0023 13.7081C12.019 13.7081 10.4089 12.0981 10.4089 10.1148C10.4089 8.13144 12.019 6.52148 14.0023 6.52148C15.9856 6.52148 17.5956 8.13144 17.5956 10.1148C17.5956 12.0981 15.9856 13.7081 14.0023 13.7081ZM14.0023 8.27148C12.9873 8.27148 12.159 9.09977 12.159 10.1148C12.159 11.1298 12.9873 11.9581 14.0023 11.9581C15.0173 11.9581 15.8456 11.1298 15.8456 10.1148C15.8456 9.09977 15.0173 8.27148 14.0023 8.27148Z" fill="white"/>
<path d="M18.6666 20.3098C18.1883 20.3098 17.7916 19.9131 17.7916 19.4348C17.7916 17.8248 16.0883 16.5065 13.9999 16.5065C11.9116 16.5065 10.2083 17.8248 10.2083 19.4348C10.2083 19.9131 9.81159 20.3098 9.33325 20.3098C8.85492 20.3098 8.45825 19.9131 8.45825 19.4348C8.45825 16.8565 10.9433 14.7565 13.9999 14.7565C17.0566 14.7565 19.5416 16.8565 19.5416 19.4348C19.5416 19.9131 19.1449 20.3098 18.6666 20.3098Z" fill="white"/>
</svg>
