<svg width="26" height="26" viewBox="0 0 26 26" fill="none" xmlns="http://www.w3.org/2000/svg">
<path d="M5.92556 11.6459C5.15639 11.6459 4.37639 11.3642 3.78056 10.79C1.78722 8.89419 0.985552 6.82502 1.45139 4.79919C2.00389 2.41585 4.09472 1.35419 5.92556 1.35419C7.75639 1.35419 9.85806 2.42669 10.3997 4.79919C10.8656 6.82502 10.0531 8.89419 8.07056 10.79C7.47472 11.3642 6.70555 11.6459 5.92556 11.6459ZM3.03305 5.16752C2.62139 6.97669 3.82389 8.58002 4.90722 9.60919C5.48139 10.1617 6.38056 10.1509 6.95472 9.60919C8.03806 8.58002 9.24056 6.97669 8.81806 5.15669C8.44972 3.55335 7.03056 2.97919 5.93639 2.97919C4.83139 2.97919 3.41222 3.55335 3.03305 5.16752Z" fill="black"/>
<path d="M5.96883 6.7158C5.373 6.7158 4.8855 6.2283 4.8855 5.63247C4.8855 5.03663 5.36216 4.54913 5.96883 4.54913H5.97967C6.5755 4.54913 7.063 5.03663 7.063 5.63247C7.063 6.2283 6.5755 6.7158 5.96883 6.7158Z" fill="black"/>
<path d="M20.0303 24.644C19.2611 24.644 18.4811 24.3623 17.8744 23.7882C15.8703 21.8923 15.0578 19.8232 15.5344 17.7865C16.0869 15.414 18.1886 14.3415 20.0303 14.3415C21.8719 14.3415 23.9736 15.414 24.5261 17.7865C24.9919 19.8123 24.1794 21.8923 22.1753 23.7773C21.5794 24.3623 20.8103 24.644 20.0303 24.644ZM20.0303 15.9773C18.9253 15.9773 17.4953 16.5515 17.1161 18.1657C16.6936 19.9748 17.9069 21.589 18.9903 22.6182C19.5644 23.1707 20.4744 23.1707 21.0594 22.6182C22.1428 21.589 23.3561 19.9857 22.9336 18.1765C22.5761 16.5515 21.1461 15.9773 20.0303 15.9773Z" fill="black"/>
<path d="M20.0733 19.7158C19.4775 19.7158 18.99 19.2283 18.99 18.6325C18.99 18.0366 19.4667 17.5491 20.0733 17.5491H20.0842C20.68 17.5491 21.1675 18.0366 21.1675 18.6325C21.1675 19.2283 20.6692 19.7158 20.0733 19.7158Z" fill="black"/>
<path d="M12.9995 21.3959H10.0961C8.83941 21.3959 7.74524 20.6375 7.31191 19.4675C6.86774 18.2975 7.19274 17.0084 8.13524 16.1742L16.7911 8.60169C17.3111 8.14669 17.322 7.52919 17.1703 7.10669C17.0078 6.68419 16.5961 6.22919 15.9028 6.22919H12.9995C12.5553 6.22919 12.187 5.86085 12.187 5.41669C12.187 4.97252 12.5553 4.60419 12.9995 4.60419H15.9028C17.1595 4.60419 18.2536 5.36252 18.687 6.53252C19.1311 7.70252 18.8061 8.99169 17.8636 9.82585L9.20774 17.3984C8.68774 17.8534 8.67691 18.4709 8.82857 18.8934C8.99107 19.3159 9.40274 19.7709 10.0961 19.7709H12.9995C13.4436 19.7709 13.812 20.1392 13.812 20.5834C13.812 21.0275 13.4436 21.3959 12.9995 21.3959Z" fill="black"/>
<path d="M12.9995 21.3959H10.0961C8.83941 21.3959 7.74524 20.6375 7.31191 19.4675C6.86774 18.2975 7.19274 17.0084 8.13524 16.1742L16.7911 8.60169C17.3111 8.14669 17.322 7.52919 17.1703 7.10669C17.0078 6.68419 16.5961 6.22919 15.9028 6.22919H12.9995C12.5553 6.22919 12.187 5.86085 12.187 5.41669C12.187 4.97252 12.5553 4.60419 12.9995 4.60419H15.9028C17.1595 4.60419 18.2536 5.36252 18.687 6.53252C19.1311 7.70252 18.8061 8.99169 17.8636 9.82585L9.20774 17.3984C8.68774 17.8534 8.67691 18.4709 8.82857 18.8934C8.99107 19.3159 9.40274 19.7709 10.0961 19.7709H12.9995C13.4436 19.7709 13.812 20.1392 13.812 20.5834C13.812 21.0275 13.4436 21.3959 12.9995 21.3959Z" fill="black"/>
</svg>
